<svg width="37" height="35" viewBox="0 0 37 35" fill="none" xmlns="http://www.w3.org/2000/svg">
<path d="M31.6048 23.3333V26.9792C31.6048 29.7937 29.1844 32.0833 26.209 32.0833H10.7923C7.8169 32.0833 5.39648 29.7937 5.39648 26.9792V26.0313C5.39648 23.7417 7.36982 21.875 9.79023 21.875H30.0632C30.9111 21.875 31.6048 22.5312 31.6048 23.3333Z" fill="white"/>
<path d="M23.8965 2.91667H13.1048C6.93815 2.91667 5.39648 4.37501 5.39648 10.2083V21.2625C6.56815 20.2854 8.10982 19.6875 9.79023 19.6875H30.0632C30.9111 19.6875 31.6048 19.0313 31.6048 18.2292V10.2083C31.6048 4.37501 30.0632 2.91667 23.8965 2.91667ZM20.0423 15.6771H12.334C11.7019 15.6771 11.1777 15.1813 11.1777 14.5833C11.1777 13.9854 11.7019 13.4896 12.334 13.4896H20.0423C20.6744 13.4896 21.1986 13.9854 21.1986 14.5833C21.1986 15.1813 20.6744 15.6771 20.0423 15.6771ZM24.6673 10.5729H12.334C11.7019 10.5729 11.1777 10.0771 11.1777 9.47917C11.1777 8.88125 11.7019 8.38542 12.334 8.38542H24.6673C25.2994 8.38542 25.8236 8.88125 25.8236 9.47917C25.8236 10.0771 25.2994 10.5729 24.6673 10.5729Z" fill="white"/>
</svg>
